<?xml version="1.0" encoding="UTF-8"?>
<svg version="1.1" xmlns="http://www.w3.org/2000/svg" width="512" height="512">
<path d="M0 0 C2.24999583 1.6684461 4.31353612 3.42018456 6.37890625 5.3125 C7.28253906 6.13621094 8.18617188 6.95992187 9.1171875 7.80859375 C24.39778342 22.38615819 33.27913748 41.31185575 33.85253906 62.4777832 C33.9445914 73.90164851 33.60410305 85.8621064 28.37890625 96.3125 C29.10166748 96.43310791 29.82442871 96.55371582 30.5690918 96.67797852 C55.94773715 102.40906716 80.01122134 122.70620049 98.37890625 140.3125 C98.90871094 140.81507324 99.43851562 141.31764648 99.984375 141.83544922 C108.27979523 149.73925074 115.62976535 158.05324218 122.37890625 167.3125 C122.99064697 168.14177002 122.99064697 168.14177002 123.61474609 168.98779297 C140.98664773 192.81910592 152.40548734 220.53937463 158.37890625 249.3125 C158.54261719 250.06063965 158.70632813 250.8087793 158.875 251.57958984 C169.7989725 303.45717413 157.07945737 360.65298507 128.37890625 404.6875 C120.7870761 415.61121552 112.57952087 425.71835776 103.37890625 435.3125 C102.87488281 435.84375488 102.37085938 436.37500977 101.8515625 436.92236328 C93.94929483 445.21629571 85.63643248 452.56462127 76.37890625 459.3125 C75.54963623 459.92424072 75.54963623 459.92424072 74.70361328 460.54833984 C50.87230033 477.92024148 23.15203162 489.33908109 -5.62109375 495.3125 C-6.3692334 495.47621094 -7.11737305 495.63992188 -7.88818359 495.80859375 C-32.7636548 501.04667426 -62.83056931 500.89450561 -87.62109375 495.3125 C-88.97630127 495.01448486 -88.97630127 495.01448486 -90.35888672 494.71044922 C-120.43854995 487.91005118 -149.30784153 475.48391879 -173.62109375 456.3125 C-174.2135791 455.84553711 -174.80606445 455.37857422 -175.41650391 454.89746094 C-190.47671768 442.84091149 -204.35642875 428.98762113 -215.62109375 413.3125 C-216.02312012 412.7654541 -216.42514648 412.2184082 -216.83935547 411.65478516 C-234.22524823 387.81466785 -245.63453667 360.09670179 -251.62109375 331.3125 C-251.78480469 330.56967773 -251.94851562 329.82685547 -252.1171875 329.06152344 C-262.97088654 277.95495295 -250.55136645 221.83021661 -223.15087891 177.95849609 C-208.9646776 156.28812519 -190.66523883 136.43552473 -169.62109375 121.3125 C-169.07404785 120.91047363 -168.52700195 120.50844727 -167.96337891 120.09423828 C-135.35306442 96.3125 -135.35306442 96.3125 -121.62109375 96.3125 C-121.89824219 95.43207031 -122.17539063 94.55164063 -122.4609375 93.64453125 C-122.82316406 92.48308594 -123.18539062 91.32164063 -123.55859375 90.125 C-123.91824219 88.97644531 -124.27789062 87.82789062 -124.6484375 86.64453125 C-130.65146111 66.07995638 -126.63296384 44.42755428 -116.70703125 25.92578125 C-112.94960738 19.2329786 -108.2338365 13.53365605 -102.62109375 8.3125 C-101.95980469 7.64605469 -101.29851562 6.97960937 -100.6171875 6.29296875 C-73.35191452 -20.07394268 -30.75132609 -19.79817119 0 0 Z " fill="#595D84" transform="translate(254.62109375,13.6875)"/>
<path d="M0 0 C2.24999583 1.6684461 4.31353612 3.42018456 6.37890625 5.3125 C7.28253906 6.13621094 8.18617188 6.95992187 9.1171875 7.80859375 C24.40136435 22.38957437 33.26890941 41.30703669 33.85424805 62.47436523 C33.9898601 80.48928504 30.26907219 94.67741212 21.37890625 110.3125 C21.00491699 110.9725 20.63092773 111.6325 20.24560547 112.3125 C7.79383744 133.93286534 -17.12045697 169.54790178 -41.7265625 178.0390625 C-46.5129265 178.72987792 -50.11958474 179.07993794 -54.43359375 176.875 C-55.51232939 176.04143155 -56.57224583 175.18337599 -57.62109375 174.3125 C-58.75417969 173.43271484 -58.75417969 173.43271484 -59.91015625 172.53515625 C-87.33590107 150.81299553 -119.29717478 118.13074614 -126.21875 82.2109375 C-128.66842616 58.47524029 -125.66426029 36.51930551 -110.93359375 17.125 C-108.31703753 14.00977275 -105.60223036 11.08565034 -102.62109375 8.3125 C-101.95980469 7.64605469 -101.29851562 6.97960937 -100.6171875 6.29296875 C-73.35191452 -20.07394268 -30.75132609 -19.79817119 0 0 Z " fill="#F6A857" transform="translate(254.62109375,13.6875)"/>
<path d="M0 0 C50.82 0 101.64 0 154 0 C155.63123534 12.23426504 157.14337615 24.00360631 157.203125 36.29296875 C157.20882507 37.24150223 157.21452515 38.19003571 157.22039795 39.16731262 C157.22977714 41.16646232 157.23635344 43.16562699 157.24023438 45.16479492 C157.24983216 48.13555085 157.28087957 51.1055807 157.3125 54.07617188 C157.35074015 68.5261703 155.82241443 81.42068457 154 96 C103.18 96 52.36 96 0 96 C-1.94897919 79.4336769 -3.20268734 63.70938615 -3.1875 47.125 C-3.18789276 46.21835602 -3.18828552 45.31171204 -3.18869019 44.37759399 C-3.1722289 12.68891559 -3.1722289 12.68891559 0 0 Z " fill="#9FE3E3" transform="translate(131,256)"/>
<path d="M0 0 C46.86 0 93.72 0 142 0 C136.1695244 22.15580726 136.1695244 22.15580726 133.1875 29.6875 C132.848396 30.55705322 132.50929199 31.42660645 132.15991211 32.32250977 C122.58886082 56.39475249 108.46569114 83.32112358 83.5625 94.0625 C73.38753401 97.54724372 64.52893662 97.09861576 54.79296875 92.55859375 C48.39338395 88.98735692 42.98077146 84.35432932 38 79 C37.33355469 78.31550781 36.66710937 77.63101563 35.98046875 76.92578125 C16.99037336 56.83574848 5.35586142 26.77930709 0 0 Z " fill="#90DDE1" transform="translate(137,384)"/>
<path d="M0 0 C36.91294414 -0.44833535 36.91294414 -0.44833535 50 3 C51.02504639 3.25740967 51.02504639 3.25740967 52.07080078 3.52001953 C90.26607291 13.21834254 121.98833797 38.13854894 142.25 71.75 C152.61817667 90.78347193 160.2621246 113.05180016 160.09765625 134.90234375 C160.09553383 135.98619102 160.09553383 135.98619102 160.09336853 137.0919342 C160.08782225 139.37383365 160.0752802 141.65563079 160.0625 143.9375 C160.05747804 145.49544128 160.05291636 147.05338412 160.04882812 148.61132812 C160.03872623 152.40762211 160.01914102 156.20369809 160 160 C149.44 160 138.88 160 128 160 C127.5978125 153.0390625 127.5978125 153.0390625 127.1875 145.9375 C126.51267923 135.42716648 125.84127735 125.19153834 123 115 C122.49339844 113.17275391 122.49339844 113.17275391 121.9765625 111.30859375 C113.37943768 83.18041691 93.7809121 59.98646301 68 46 C46.36995029 34.60528513 24.07049914 33.16641185 0 32 C0 21.44 0 10.88 0 0 Z " fill="#77CADA" transform="translate(352,0)"/>
<path d="M0 0 C9.89577644 7.9668267 17.4884094 19.23866996 18.91796875 32.06835938 C20.15192063 47.71212707 15.81743786 59.85185743 6.01953125 72.08203125 C-1.89372199 80.90640533 -13.9738633 86.39547283 -25.70703125 87.24609375 C-39.38599482 87.70344512 -50.91870299 83.95486038 -61.5 75.1875 C-70.8964532 66.36052881 -76.38233415 55.09284581 -77.6953125 42.2578125 C-78.1112453 28.69840311 -74.04133105 16.96869244 -65.27734375 6.58984375 C-47.4779414 -12.21411041 -21.35576001 -14.62317489 0 0 Z " fill="#F4EE9C" transform="translate(237.3125,41)"/>
<path d="M0 0 C3.59937335 1.48634837 5.50383652 3.48276103 8 6.4375 C23.03738732 23.80834891 23.03738732 23.80834891 42.6875 33.25 C49.70764746 33.53136864 55.11450168 29.50608538 60.125 25.0625 C60.94979858 24.34658691 60.94979858 24.34658691 61.79125977 23.61621094 C63.53874296 22.08967389 65.27121623 20.5476685 67 19 C67.58217285 18.48099121 68.1643457 17.96198242 68.76416016 17.42724609 C76.59181239 10.45190062 76.59181239 10.45190062 83.6875 2.75 C84.8321875 1.38875 84.8321875 1.38875 86 0 C86.66 0 87.32 0 88 0 C89.63931628 2.36445808 91.11703501 4.70615497 92.5625 7.1875 C93.00432617 7.94490479 93.44615234 8.70230957 93.90136719 9.48266602 C100.77850518 21.5863798 105.97850858 34.51892905 110.4375 47.6875 C110.67243164 48.38093506 110.90736328 49.07437012 111.14941406 49.78881836 C112.90115592 55.19780794 113.86603647 60.33018234 115 66 C68.14 66 21.28 66 -27 66 C-21.51134094 42.21581076 -13.19489077 20.58777284 0 0 Z " fill="#ACE8E5" transform="translate(164,158)"/>
<path d="M0 0 C20.13 0 40.26 0 61 0 C60.34 9.9 59.68 19.8 59 30 C58.85081368 36.47424764 58.70733581 42.90283443 58.73925781 49.37133789 C58.75012429 51.96719101 58.73915541 54.56236825 58.7265625 57.15820312 C58.74614809 70.30503125 59.85115073 82.78823337 61 96 C40.87 96 20.74 96 0 96 C-7.13322942 61.76049878 -7.95423479 33.80549788 0 0 Z " fill="#8DDCE0" transform="translate(38,256)"/>
<path d="M0 0 C20.13 0 40.26 0 61 0 C68.93343709 33.71710762 68.12865275 62.13889946 61 96 C40.87 96 20.74 96 0 96 C0.66 88.41 1.32 80.82 2 73 C2.1571755 68.84819446 2.28420807 64.76911744 2.265625 60.625 C2.26753845 59.60229004 2.2694519 58.57958008 2.27142334 57.52587891 C2.27275863 55.40592191 2.26925337 53.28595596 2.26074219 51.16601562 C2.25000376 48.00110742 2.26073102 44.83676649 2.2734375 41.671875 C2.27211543 39.57291547 2.26955207 37.47395628 2.265625 35.375 C2.26967346 34.47217285 2.27372192 33.5693457 2.27789307 32.63916016 C2.20300533 21.65052096 0.96129724 11.05491824 0 0 Z " fill="#B0EAE6" transform="translate(317,256)"/>
<path d="M0 0 C26.46517418 -0.48783731 48.35552175 0.98668074 69 19 C69.96808594 19.77214844 70.93617188 20.54429688 71.93359375 21.33984375 C81.5504206 29.36742368 87.5462836 40.50849967 92 52 C92.65162109 53.61648437 92.65162109 53.61648437 93.31640625 55.265625 C97.68537042 68.35729462 96.25060845 82.40449161 96 96 C85.44 96 74.88 96 64 96 C63.7525 92.1225 63.505 88.245 63.25 84.25 C62.03020772 68.1108112 58.83694782 56.1715187 46.6875 44.6875 C38.99628478 38.19065438 29.79569681 34.06504829 19.7265625 33.3671875 C18.68580566 33.29097168 17.64504883 33.21475586 16.57275391 33.13623047 C14.61861572 33.00692139 14.61861572 33.00692139 12.625 32.875 C8.45875 32.58625 4.2925 32.2975 0 32 C0 21.44 0 10.88 0 0 Z " fill="#66AACF" transform="translate(352,64)"/>
<path d="M0 0 C17.49 0 34.98 0 53 0 C54.32 5.28 55.64 10.56 57 16 C62.60946329 36.88932528 70.59128022 56.36684084 81.11132812 75.2644043 C82 77 82 77 83 80 C77.76786754 78.50510501 73.44520982 76.14640892 68.8125 73.375 C68.06000977 72.92697021 67.30751953 72.47894043 66.53222656 72.01733398 C39.95784882 56.004933 19.08923583 34.32685837 3.15234375 7.87109375 C2.76038818 7.22068115 2.36843262 6.57026855 1.96459961 5.90014648 C1 4 1 4 0 0 Z " fill="#83D8DE" transform="translate(52,384)"/>
<path d="M0 0 C17.49 0 34.98 0 53 0 C50.7450133 6.76496011 50.7450133 6.76496011 48.93359375 9.69921875 C48.53519287 10.34552246 48.13679199 10.99182617 47.72631836 11.65771484 C47.08835327 12.6624585 47.08835327 12.6624585 46.4375 13.6875 C45.7714978 14.74251709 45.7714978 14.74251709 45.09204102 15.81884766 C41.16417058 21.93445464 36.80286141 27.54258934 32 33 C31.28199219 33.82757813 30.56398438 34.65515625 29.82421875 35.5078125 C27.58716885 38.04287082 25.3070031 40.52848424 23 43 C22.19175781 43.87398438 21.38351562 44.74796875 20.55078125 45.6484375 C9.00530148 57.69439397 -4.55712009 66.79001026 -19 75 C-19.94617188 75.54914063 -20.89234375 76.09828125 -21.8671875 76.6640625 C-27.70041899 80 -27.70041899 80 -30 80 C-28.85331859 76.78147378 -27.40468142 73.84534803 -25.75 70.8671875 C-13.69374897 49.09729583 -4.10781537 24.6468922 0 0 Z " fill="#9FE2E3" transform="translate(311,384)"/>
<path d="M0 0 C12.45579618 4.7091857 23.47567443 11.96554417 34 20 C34.91007812 20.68449219 35.82015625 21.36898437 36.7578125 22.07421875 C54.57323853 36.03406751 68.235116 52.84890792 79.84765625 72.12890625 C80.23961182 72.77931885 80.63156738 73.42973145 81.03540039 74.09985352 C82 76 82 76 83 80 C65.51 80 48.02 80 30 80 C28.35 73.07 26.7 66.14 25 59 C23.95370209 55.38145509 22.91340934 51.85939377 21.6875 48.3125 C21.39536621 47.45495117 21.10323242 46.59740234 20.80224609 45.71386719 C16.01757847 31.99495241 9.72481038 19.12066764 2.78515625 6.37890625 C1 3 1 3 0 0 Z " fill="#BAEDE8" transform="translate(281,144)"/>
<path d="M0 0 C0 3.50753432 -0.83902521 4.87318995 -2.52734375 7.91796875 C-3.33836548 9.41009888 -3.33836548 9.41009888 -4.16577148 10.93237305 C-4.75044189 12.00656494 -5.3351123 13.08075684 -5.9375 14.1875 C-16.8552532 34.75509034 -25.15984096 56.95904578 -29 80 C-46.49 80 -63.98 80 -82 80 C-70.52581737 45.57745211 -35.11266473 17.49779548 -3.875 1.8125 C-2.58765879 1.19917077 -1.29805305 0.59032061 0 0 Z " fill="#9EE2E3" transform="translate(134,144)"/>
</svg>
