<?xml version="1.0" encoding="UTF-8"?>
<svg version="1.1" xmlns="http://www.w3.org/2000/svg" width="48" height="48">
<path d="M0 0 C0.83789062 0.144375 1.67578125 0.28875 2.5390625 0.4375 C2.7890625 3.1875 2.7890625 3.1875 2.5390625 6.4375 C0.5390625 8.8125 0.5390625 8.8125 -1.4609375 10.4375 C-0.8009375 11.0975 -0.1409375 11.7575 0.5390625 12.4375 C0.5390625 13.7575 0.5390625 15.0775 0.5390625 16.4375 C1.5290625 16.4375 2.5190625 16.4375 3.5390625 16.4375 C3.5390625 18.0875 3.5390625 19.7375 3.5390625 21.4375 C4.5290625 21.7675 5.5190625 22.0975 6.5390625 22.4375 C7.02268815 25.08497647 6.96439068 26.81011746 5.43310547 29.06884766 C3.84826197 30.87572488 2.19092593 32.56568017 0.4765625 34.25 C-0.36551758 35.1462207 -0.36551758 35.1462207 -1.22460938 36.06054688 C-4.25075272 39.08669022 -5.8020376 40.33165544 -10.1328125 41.02734375 C-13.72999526 40.38981488 -15.07697353 39.71124608 -17.6484375 37.1875 C-18.28136719 36.58421875 -18.91429687 35.9809375 -19.56640625 35.359375 C-20.19160156 34.72515625 -20.81679688 34.0909375 -21.4609375 33.4375 C-22.17507812 32.85226563 -22.88921875 32.26703125 -23.625 31.6640625 C-26.17799292 28.56787959 -26.24938065 26.02146006 -26.6484375 22.0625 C-26.78636719 20.77601562 -26.92429687 19.48953125 -27.06640625 18.1640625 C-27.19660156 16.93429688 -27.32679687 15.70453125 -27.4609375 14.4375 C-27.77820515 12.43488862 -28.10557615 10.43370375 -28.4609375 8.4375 C-25.7734375 8.0625 -25.7734375 8.0625 -22.4609375 8.4375 C-20.53879406 10.26726135 -19.08746295 12.32606492 -17.4609375 14.4375 C-17.06825684 14.01339844 -16.67557617 13.58929688 -16.27099609 13.15234375 C-14.47534944 11.23164031 -12.65630166 9.33478095 -10.8359375 7.4375 C-10.21847656 6.76976562 -9.60101562 6.10203125 -8.96484375 5.4140625 C-4.23554644 0.53541896 -4.23554644 0.53541896 0 0 Z " fill="#FECB7F" transform="translate(35.4609375,4.5625)"/>
<path d="M0 0 C0.99 0 1.98 0 3 0 C2.42655063 2.86724686 2.1385485 3.8614515 0 6 C-0.99 6 -1.98 6 -3 6 C-2.42655063 3.13275314 -2.1385485 2.1385485 0 0 Z " fill="#0188D0" transform="translate(26,5)"/>
<path d="M0 0 C2.86724686 0.57344937 3.8614515 0.8614515 6 3 C6 3.99 6 4.98 6 6 C3.13275314 5.42655063 2.1385485 5.1385485 0 3 C0 2.01 0 1.02 0 0 Z " fill="#0187CF" transform="translate(9,5)"/>
<path d="M0 0 C0.66 0 1.32 0 2 0 C2 2.64 2 5.28 2 8 C1.34 8 0.68 8 0 8 C0 5.36 0 2.72 0 0 Z " fill="#0287D0" transform="translate(18,2)"/>
</svg>
