<svg width="425" height="129" viewBox="0 0 425 129" fill="none" xmlns="http://www.w3.org/2000/svg">
<path d="M87.0626 6.6875C88.0932 6.68427 89.1238 6.68105 90.1856 6.67773C97.7323 6.73224 97.7323 6.73224 100 9C99.2872 9.4125 98.5744 9.825 97.8399 10.25C90.2399 14.8325 84.9113 19.6331 80.0001 27C77.0313 28.1328 77.0313 28.1328 73.5001 29.125C69.1479 30.2988 69.1479 30.2988 65.0001 32C68.9601 31.67 72.9201 31.34 77.0001 31C75.5604 33.712 74.112 36.4199 72.6094 39.0977C71.0338 41.8449 71.0338 41.8449 70.0157 44.1836C68.8541 46.3974 68.0458 47.5237 66.0001 49C62.078 50.1448 58.2387 50.8986 54.2032 51.4922C51.1495 51.6547 51.1495 51.6547 50.0001 53C54.2901 53 58.5801 53 63.0001 53C57.5141 64.8689 48.0701 72.901 35.9376 77.375C34.2958 77.929 32.6514 78.4753 31.0001 79C33.4029 63.7823 42.7192 47.0933 52.0001 35C32.3375 54.8658 23.1798 85.9109 15.0001 112C12.6186 108.428 11.7953 105.252 12.0001 101C13.2572 98.9513 14.6065 96.9585 16.0001 95C19.4297 87.7597 20.3471 80.5671 20.9376 72.6875C22.4739 52.7838 30.5689 35.729 45.1251 21.875C57.5975 11.2734 70.7518 6.42357 87.0626 6.6875Z" fill="#073C4E"/>
<path d="M365 64C365.99 64 366.98 64 368 64C367 71.4286 367 71.4286 366 75C367.98 75 369.96 75 372 75C371.67 76.32 371.34 77.64 371 79C368.69 79.33 366.38 79.66 364 80C362.35 85.28 360.7 90.56 359 96C360.65 95.01 362.3 94.02 364 93C365.32 93 366.64 93 368 93C368 93.66 368 94.32 368 95C370.048 94.4183 370.048 94.4183 372 93C372.739 90.3272 372.739 90.3272 372.938 87.25C373.698 81.5427 374.791 78.893 379 75C381.763 73.6187 383.947 73.8092 387 74C389 76 389 76 389.688 79C389.633 84.2185 385.416 87.3894 381.969 90.8633C379.774 92.7609 379.774 92.7609 380 95C385.339 94.7821 388.312 93.6652 392.23 90.0117C396.314 85.3689 399.855 79.9948 402.066 74.2109C402.374 73.4813 402.683 72.7517 403 72C405.125 71.1875 405.125 71.1875 407 71C407.562 72.9375 407.562 72.9375 408 75C407.67 75.33 407.34 75.66 407 76C407.281 79.6581 407.563 82.319 409.562 85.4375C411.719 89.281 411.557 91.6135 411 96C408.873 98.6587 407.391 99.789 403.992 100.305C400.161 100.432 398.223 100.149 395 98C395 97.01 395 96.02 395 95C398.63 95 402.26 95 406 95C406.383 89.7682 405.219 86.622 403 82C402.13 83.2124 402.13 83.2124 401.242 84.4492C392.178 96.9109 392.178 96.9109 386 100C382.625 100.25 382.625 100.25 379 100C378.381 99.4431 377.762 98.8863 377.125 98.3125C376.424 97.8794 375.723 97.4462 375 97C372.731 97.5524 370.633 98.3815 368.453 99.2188C364.703 100.413 360.89 100.633 357 100C355 98 355 98 354.918 96.1523C355.609 90.4772 356.989 85.3493 359 80C358.01 79.67 357.02 79.34 356 79C356 77.68 356 76.36 356 75C356.777 74.9394 357.555 74.8788 358.355 74.8164C361.187 74.2653 361.187 74.2653 362.363 71.7148C362.677 70.7983 362.99 69.8818 363.312 68.9375C363.639 68.0184 363.965 67.0993 364.301 66.1523C364.532 65.4421 364.762 64.7318 365 64Z" fill="#101010"/>
<path d="M210 71C210.99 71.33 211.98 71.66 213 72C213 73.32 213 74.64 213 76C213.722 75.6494 214.444 75.2988 215.188 74.9375C218.33 73.8901 219.873 74.0446 223 75C224 76 224 76 224.219 78.6016C223.963 82.5731 222.903 85.6567 221.5 89.375C221.262 90.0157 221.023 90.6563 220.777 91.3164C220.194 92.8809 219.598 94.4409 219 96C219.619 95.505 220.238 95.01 220.875 94.5C223 93 223 93 225 93C224.631 95.6761 224.151 96.8431 222.25 98.8125C219.4 100.317 218.019 99.9225 215 99C214.686 93.0301 215.405 89.5015 218 84C218.691 81.2211 218.691 81.2211 219 79C215.657 79.2346 213.887 79.4143 211 81C208.951 83.8831 207.374 86.8715 205.734 90.0039C203.109 94.5393 199.727 97.6366 195 100C192.063 100.375 192.063 100.375 189 100C187.125 97.5 187.125 97.5 186 95C185.299 95.6394 184.598 96.2788 183.875 96.9375C180.722 99.1998 178.863 99.916 175 100C172.825 98.4125 172.096 97.4506 171.531 94.8008C171.449 88.2378 172.726 84.0294 177 79C181.763 74.6797 184.243 73.8749 190.625 73.9375C191.814 73.9465 193.002 73.9555 194.227 73.9648C195.142 73.9764 196.057 73.988 197 74C198.157 77.471 197.83 78.1473 196.566 81.4492C196.088 82.7206 196.088 82.7206 195.6 84.0176C195.086 85.3392 195.086 85.3392 194.563 86.6875C194.224 87.5802 193.886 88.4729 193.537 89.3926C192.7 91.5983 191.854 93.8005 191 96C191.578 95.5256 192.155 95.0513 192.75 94.5625C195 93 195 93 197.023 92.5938C201.463 91.2601 203.869 85.8419 206 82C206.768 79.5843 207.269 77.3196 207.613 74.8125C208 73 208 73 210 71Z" fill="#121212"/>
<path d="M147.902 53.5742C152.317 56.5747 154.272 60.0744 156 65C157.668 74.9066 154.47 82.9489 149 91C144.756 95.3213 140.481 98.7868 134.258 99.168C133.224 99.1744 132.19 99.1809 131.125 99.1875C130.096 99.2017 129.068 99.2159 128.008 99.2305C124.935 98.9951 122.806 98.2129 120 97C116.914 97.363 115.675 98.2167 113 100C109.362 100.464 107.643 100.428 104.562 98.375C103 96 103 96 103.187 92.8125C104 90 104 90 105 89C106.853 88.9277 108.708 88.9162 110.562 88.9375C111.574 88.9465 112.586 88.9556 113.629 88.9649C114.803 88.9823 114.803 88.9823 116 89C116.268 87.72 116.536 86.4399 116.812 85.1211C117.949 80.0131 119.42 75.0487 121 70.0625C121.26 69.2137 121.521 68.3648 121.789 67.4902C122.044 66.6801 122.299 65.8699 122.562 65.0352C122.791 64.3069 123.019 63.5787 123.254 62.8284C124 61 124 61 126 59C126.99 59 127.98 59 129 59C127.784 66.5379 125.599 73.4969 123.033 80.6655C121.669 84.5653 120.614 87.801 121 92C126.385 94.4202 131.168 94.7877 137 94C143.381 91.5476 146.298 85.9619 149 80C150.101 76.6967 150.202 74.1017 150.25 70.625C150.289 68.9428 150.289 68.9428 150.328 67.2266C149.955 63.561 149.327 61.8453 147 59C142.464 55.9873 138.322 55.5075 133 55.5625C132.314 55.5425 131.628 55.5225 130.922 55.502C125.805 55.5068 122.942 56.8173 119 60C117.167 62.1058 117.167 62.1058 116 64C114.68 63.67 113.36 63.34 112 63C114.292 57.3736 118.182 54.1327 123.625 51.6875C132.394 48.513 139.769 48.9982 147.902 53.5742Z" fill="#151515"/>
<path d="M295.188 50.375C296.116 50.5812 297.044 50.7875 298 51C298 53.97 298 56.94 298 60C298.888 59.1686 298.888 59.1686 299.793 58.3203C300.583 57.5959 301.373 56.8714 302.188 56.125C302.965 55.4057 303.742 54.6864 304.543 53.9453C307.931 51.2626 310.793 50.1478 315.062 49.625C318 50 318 50 320.375 51.5625C322.598 54.8969 322.248 57.029 322 61C321.098 64.3616 321.098 64.3616 319.848 67.8164C319.628 68.436 319.408 69.0555 319.182 69.6938C318.486 71.6539 317.775 73.6084 317.062 75.5625C316.355 77.5209 315.652 79.4803 314.953 81.4419C314.32 83.2196 313.676 84.9938 313.031 86.7678C312.047 89.8512 311.443 92.7985 311 96C311.743 95.1956 312.485 94.3913 313.25 93.5625C315.753 91.2301 316.718 90.3647 320 90C319.78 93.857 318.985 95.0162 316.25 97.875C313 100 313 100 310.188 99.875C308 99 308 99 307 98C306.2 90.3369 308.773 84.1662 311.438 77.0625C314.205 69.6404 316.537 62.9432 317 55C309.755 55.8455 304.67 57.2049 300 63C294.305 71.2583 290.783 79.6733 288.105 89.3086C286.984 93.0539 285.603 96.4412 284 100C283.01 100 282.02 100 281 100C281.574 92.8921 283.568 86.5591 285.812 79.8125C286.538 77.5913 287.264 75.37 287.988 73.1484C288.336 72.0898 288.683 71.0312 289.042 69.9404C290.766 64.649 292.39 59.3274 294 54C293.457 54.5053 292.915 55.0106 292.355 55.5312C291.64 56.1809 290.925 56.8306 290.188 57.5C289.48 58.1497 288.772 58.7994 288.043 59.4688C286 61 286 61 283 61C283.474 56.7371 285.922 54.7845 289 52C292 50 292 50 295.188 50.375Z" fill="#121212"/>
<path d="M236 74C236.99 74 237.98 74 239 74C238.475 81.7499 236.444 88.645 234 96C243.185 92.6161 246.676 85.9915 250.688 77.375C252 75 252 75 254.082 74.3516C254.715 74.2355 255.348 74.1195 256 74C254.475 81.4961 252.32 88.7136 250 96C251.65 95.34 253.3 94.68 255 94C255 95.32 255 96.64 255 98C253.948 98.3713 252.896 98.7425 251.812 99.125C246.668 101.988 245.824 107.152 244.238 112.492C242.717 116.802 240.86 120.68 237.062 123.375C234.522 124.145 232.64 124.338 230 124C228.188 122.875 228.188 122.875 227 121C226.375 118.312 226.375 118.312 227 115C230.129 110.204 234.231 106.734 238.812 103.375C242.494 100.652 244.201 98.6796 245 94C244.154 94.8044 243.309 95.6087 242.438 96.4375C239.127 99.2055 236.363 99.9161 232 100C230 98 230 98 229.562 94.8125C229.663 89.3739 231.935 78.0652 236 74Z" fill="#101010"/>
<path d="M344 74C346.753 75.7956 348.526 77.0526 350 80C350.073 87.1961 348.154 92.4957 343.313 97.875C339.661 99.6516 336.054 100.26 332 100C329.079 98.235 327.521 97.0415 326 94C325.388 88.0867 326.09 84.6537 329.516 79.7656C333.67 74.8245 337.6 73.0691 344 74Z" fill="#141414"/>
<path d="M88 96C88 99 88 99 85.9453 101.27C68.9844 116.562 68.9844 116.562 57.1719 116.562C51.4377 115.546 46.5206 112.599 41.4414 109.848C36.6326 107.266 33.4428 106.561 28 107C25.5914 107.916 23.3168 108.966 21.0156 110.125C19 111 19 111 16 111C17.4132 109.871 18.8307 108.747 20.25 107.625C21.0389 106.999 21.8278 106.372 22.6406 105.727C26.6537 102.79 29.6347 101.485 34.7305 101.617C40.0652 102.517 44.8152 105.606 49.3203 108.48C53.9053 111.332 57.1459 112.788 62.5586 111.762C72.5835 108.634 80.2428 102.872 88 96Z" fill="#161616"/>
<path d="M210 71C210.99 71.33 211.98 71.66 213 72C213 73.32 213 74.64 213 76C214.083 75.4741 214.083 75.4741 215.188 74.9375C218.33 73.8901 219.873 74.0446 223 75C224 76 224 76 224.219 78.6016C223.963 82.5731 222.903 85.6567 221.5 89.375C221.142 90.336 221.142 90.336 220.777 91.3164C220.194 92.8809 219.598 94.4409 219 96C219.619 95.505 220.238 95.01 220.875 94.5C223 93 223 93 225 93C224.631 95.6761 224.151 96.8431 222.25 98.8125C219.4 100.317 218.019 99.9225 215 99C214.686 93.0301 215.405 89.5015 218 84C218.691 81.2211 218.691 81.2211 219 79C214.886 79.6664 214.886 79.6664 211 81C208.93 83.9683 208.93 83.9683 208 87C207.01 87 206.02 87 205 87C205 84 205 84 205.938 82.25C207.204 79.8593 207.204 79.8593 207.5 76.375C208 73 208 73 210 71Z" fill="#161616"/>
<path d="M343 78C345 80 345 80 345.375 83.75C345.259 89.065 342.678 92.3215 339 96C336 96.25 336 96.25 333 96C330.606 93.6059 330.704 92.9621 330.688 89.6875C330.778 85.6718 331.395 83.1834 334 80C337.452 77.6984 338.947 77.6551 343 78Z" fill="#F9F9F9"/>
<path d="M404 71C406.062 71.4375 406.062 71.4375 408 72C407.881 72.5685 407.763 73.137 407.641 73.7227C406.737 79.1356 407.043 81.7139 410.055 86.2422C411.881 89.638 411.558 92.2175 411 96C408.873 98.6587 407.391 99.789 403.992 100.305C400.161 100.432 398.223 100.149 395 98C395 97.01 395 96.02 395 95C398.63 95 402.26 95 406 95C406.383 89.7682 405.219 86.622 403 82C400.525 83.485 400.525 83.485 398 85C398 81.3592 399.107 80.0587 401 77C401.68 75.3386 402.349 73.673 403 72C403.33 71.67 403.66 71.34 404 71Z" fill="#181818"/>
<path d="M188.187 77.875C190.075 77.9369 190.075 77.9369 192 78C191.442 82.1499 190.111 84.7314 187.687 88.125C187.093 88.9732 186.499 89.8214 185.887 90.6953C184.064 92.9217 182.446 94.4946 180 96C177.75 95.6875 177.75 95.6875 176 95C175.413 89.3612 176.525 86.4194 179.613 81.6992C182.192 78.5387 184.272 77.7466 188.187 77.875Z" fill="#F4F4F4"/>
<path d="M236 74C236.99 74 237.98 74 239 74C238.475 81.7499 236.444 88.645 234 96C234.771 95.6391 235.542 95.2781 236.336 94.9062C237.339 94.4422 238.342 93.9781 239.375 93.5C240.373 93.0359 241.37 92.5719 242.398 92.0938C245 91 245 91 247 91C247 91.66 247 92.32 247 93C242.53 97.3776 238.301 100 232 100C230 98 230 98 229.562 94.8125C229.663 89.3739 231.935 78.0652 236 74Z" fill="#1B1B1B"/>
<path d="M165 74C165.99 74 166.98 74 168 74C166.475 81.4961 164.32 88.7136 162 96C162.619 95.505 163.238 95.01 163.875 94.5C166 93 166 93 168 93C167.6 95.32 167.094 96.8632 165.75 98.8125C164 100 164 100 161.375 99.75C159 99 159 99 158 98C158.378 90.4386 159.475 79.5254 165 74Z" fill="#111111"/>
<path d="M402 81C404.741 82.3703 405.278 84.3369 406.398 87.082C407.247 89.7889 407.267 92.193 407 95C405.142 96.8579 402.575 96.1795 400.105 96.2305C397.702 95.9674 396.089 95.1874 394 94C394.494 93.2291 394.987 92.4583 395.496 91.6641C396.137 90.6612 396.777 89.6583 397.438 88.625C398.076 87.6273 398.714 86.6295 399.371 85.6016C400.969 83.1417 400.969 83.1417 402 81Z" fill="#F4F4F4"/>
<path d="M242 106C239.136 117.368 239.136 117.368 235 120C232.75 119.75 232.75 119.75 231 119C231.417 114.133 233.455 112.208 237 109C237.557 108.402 238.114 107.804 238.688 107.188C240 106 240 106 242 106Z" fill="#EFEFEF"/>
<path d="M381 78C382.32 78.33 383.64 78.66 385 79C384.914 81.9126 384.421 83.568 382.375 85.668C380.616 87.1609 378.837 88.6044 377 90C377.714 81.4286 377.714 81.4286 381 78Z" fill="#F1F1F1"/>
<path d="M52 34C52 37.7367 50.9599 38.7301 48.75 41.6875C45.6427 45.9797 43.2234 50.1975 41 55C40.01 55 39.02 55 38 55C41.0152 46.893 46.2871 40.393 52 34Z" fill="#D0DADD"/>
<path d="M88 96C88 99 88 99 85.6992 101.445C84.703 102.347 83.6987 103.24 82.6875 104.125C82.188 104.58 81.6885 105.035 81.1738 105.504C78.7914 107.631 77.0626 108.979 74 110C74.2433 106.678 75.1067 105.908 77.6875 103.676C78.7839 102.877 79.8885 102.09 81 101.312C82.1044 100.517 83.2086 99.7217 84.3125 98.9258C85.1994 98.2903 86.0863 97.6548 87 97C87.33 96.67 87.66 96.34 88 96Z" fill="#313131"/>
<path d="M39 54C39.33 54.66 39.66 55.32 40 56C39.2227 58.1641 39.2227 58.1641 38.0625 60.625C37.6822 61.4423 37.302 62.2595 36.9102 63.1016C36.6098 63.728 36.3095 64.3545 36 65C35.01 65 34.02 65 33 65C35.2331 57.9816 35.2331 57.9816 37 55C37.66 54.67 38.32 54.34 39 54Z" fill="#EFF2F3"/>
<path d="M168 61C169.32 61 170.64 61 172 61C172 62.65 172 64.3 172 66C170.68 66.33 169.36 66.66 168 67C167.618 65.3439 167.286 63.6754 167 62C167.33 61.67 167.66 61.34 168 61Z" fill="#121212"/>
<path d="M58.6875 50.9375C59.4957 51.1321 60.304 51.3268 61.1367 51.5273C61.7516 51.6833 62.3665 51.8393 63 52C63 52.33 63 52.66 63 53C58.05 53.33 53.1 53.66 48 54C51.8725 50.1275 53.5885 49.6812 58.6875 50.9375Z" fill="#B1C2C7"/>
<path d="M247 91C247 91.66 247 92.32 247 93C245.469 94.2891 245.469 94.2891 243.5 95.625C242.85 96.071 242.201 96.517 241.531 96.9766C241.026 97.3143 240.521 97.652 240 98C240 95 240 95 241.812 92.8125C244 91 244 91 247 91Z" fill="#292929"/>
<path d="M108 92C110.97 92.495 110.97 92.495 114 93C113.01 94.485 113.01 94.485 112 96C110.68 96 109.36 96 108 96C108 94.68 108 93.36 108 92Z" fill="#D8D8D8"/>
<path d="M69 29C69.99 29.33 70.98 29.66 72 30C70.8125 31.5 70.8125 31.5 69 33C66.3125 33.1875 66.3125 33.1875 64 33C65.6341 31.2916 66.8691 30.0655 69 29Z" fill="#D8E1E3"/>
</svg>
